<svg width="519" height="135" viewBox="0 0 519 135" fill="none" xmlns="http://www.w3.org/2000/svg">
<path d="M8.53755 93V23.1818H32.9466C37.8103 23.1818 41.8216 24.0227 44.9807 25.7045C48.1398 27.3636 50.4921 29.6023 52.0376 32.4205C53.583 35.2159 54.3557 38.3182 54.3557 41.7273C54.3557 44.7273 53.8216 47.2045 52.7535 49.1591C51.708 51.1136 50.3216 52.6591 48.5944 53.7955C46.8898 54.9318 45.0376 55.7727 43.0376 56.3182V57C45.1739 57.1364 47.3216 57.8864 49.4807 59.25C51.6398 60.6136 53.4466 62.5682 54.9012 65.1136C56.3557 67.6591 57.083 70.7727 57.083 74.4545C57.083 77.9545 56.2876 81.1023 54.6966 83.8977C53.1057 86.6932 50.5944 88.9091 47.1626 90.5455C43.7307 92.1818 39.2648 93 33.7648 93H8.53755ZM16.9921 85.5H33.7648C39.2876 85.5 43.208 84.4318 45.5262 82.2955C47.8671 80.1364 49.0376 77.5227 49.0376 74.4545C49.0376 72.0909 48.4353 69.9091 47.2307 67.9091C46.0262 65.8864 44.3103 64.2727 42.083 63.0682C39.8557 61.8409 37.2194 61.2273 34.1739 61.2273H16.9921V85.5ZM16.9921 53.8636H32.6739C35.2194 53.8636 37.5148 53.3636 39.5603 52.3636C41.6285 51.3636 43.2648 49.9545 44.4694 48.1364C45.6966 46.3182 46.3103 44.1818 46.3103 41.7273C46.3103 38.6591 45.2421 36.0568 43.1057 33.9205C40.9694 31.7614 37.583 30.6818 32.9466 30.6818H16.9921V53.8636ZM69.8841 93V40.6364H77.9296V93H69.8841ZM73.9751 31.9091C72.4069 31.9091 71.0546 31.375 69.9182 30.3068C68.8046 29.2386 68.2478 27.9545 68.2478 26.4545C68.2478 24.9545 68.8046 23.6705 69.9182 22.6023C71.0546 21.5341 72.4069 21 73.9751 21C75.5432 21 76.8841 21.5341 77.9978 22.6023C79.1341 23.6705 79.7023 24.9545 79.7023 26.4545C79.7023 27.9545 79.1341 29.2386 77.9978 30.3068C76.8841 31.375 75.5432 31.9091 73.9751 31.9091ZM113.802 113.727C109.915 113.727 106.574 113.227 103.779 112.227C100.984 111.25 98.654 109.955 96.7904 108.341C94.9495 106.75 93.4836 105.045 92.3927 103.227L98.8018 98.7273C99.529 99.6818 100.449 100.773 101.563 102C102.677 103.25 104.199 104.33 106.131 105.239C108.086 106.17 110.643 106.636 113.802 106.636C118.029 106.636 121.518 105.614 124.268 103.568C127.018 101.523 128.393 98.3182 128.393 93.9545V83.3182H127.711C127.12 84.2727 126.279 85.4545 125.188 86.8636C124.12 88.25 122.574 89.4886 120.552 90.5795C118.552 91.6477 115.847 92.1818 112.438 92.1818C108.211 92.1818 104.415 91.1818 101.052 89.1818C97.7108 87.1818 95.0631 84.2727 93.1086 80.4545C91.1768 76.6364 90.2108 72 90.2108 66.5455C90.2108 61.1818 91.154 56.5114 93.0404 52.5341C94.9268 48.5341 97.5518 45.4432 100.915 43.2614C104.279 41.0568 108.165 39.9545 112.574 39.9545C115.984 39.9545 118.688 40.5227 120.688 41.6591C122.711 42.7727 124.256 44.0455 125.324 45.4773C126.415 46.8864 127.256 48.0455 127.847 48.9545H128.665V40.6364H136.438V94.5C136.438 99 135.415 102.659 133.37 105.477C131.347 108.318 128.62 110.398 125.188 111.716C121.779 113.057 117.984 113.727 113.802 113.727ZM113.529 84.9545C116.756 84.9545 119.484 84.2159 121.711 82.7386C123.938 81.2614 125.631 79.1364 126.79 76.3636C127.949 73.5909 128.529 70.2727 128.529 66.4091C128.529 62.6364 127.961 59.3068 126.824 56.4205C125.688 53.5341 124.006 51.2727 121.779 49.6364C119.552 48 116.802 47.1818 113.529 47.1818C110.12 47.1818 107.279 48.0455 105.006 49.7727C102.756 51.5 101.063 53.8182 99.9268 56.7273C98.8131 59.6364 98.2563 62.8636 98.2563 66.4091C98.2563 70.0455 98.8245 73.2614 99.9608 76.0568C101.12 78.8295 102.824 81.0114 105.074 82.6023C107.347 84.1705 110.165 84.9545 113.529 84.9545Z" fill="white"/>
<path d="M230.318 94.0909C225.273 94.0909 220.92 92.9773 217.261 90.75C213.625 88.5 210.818 85.3636 208.841 81.3409C206.886 77.2955 205.909 72.5909 205.909 67.2273C205.909 61.8636 206.886 57.1364 208.841 53.0455C210.818 48.9318 213.568 45.7273 217.091 43.4318C220.636 41.1136 224.773 39.9545 229.5 39.9545C232.227 39.9545 234.92 40.4091 237.58 41.3182C240.239 42.2273 242.659 43.7045 244.841 45.75C247.023 47.7727 248.761 50.4545 250.057 53.7955C251.352 57.1364 252 61.25 252 66.1364V69.5455H211.636V62.5909H243.818C243.818 59.6364 243.227 57 242.045 54.6818C240.886 52.3636 239.227 50.5341 237.068 49.1932C234.932 47.8523 232.409 47.1818 229.5 47.1818C226.295 47.1818 223.523 47.9773 221.182 49.5682C218.864 51.1364 217.08 53.1818 215.83 55.7045C214.58 58.2273 213.955 60.9318 213.955 63.8182V68.4545C213.955 72.4091 214.636 75.7614 216 78.5114C217.386 81.2386 219.307 83.3182 221.761 84.75C224.216 86.1591 227.068 86.8636 230.318 86.8636C232.432 86.8636 234.341 86.5682 236.045 85.9773C237.773 85.3636 239.261 84.4545 240.511 83.25C241.761 82.0227 242.727 80.5 243.409 78.6818L251.182 80.8636C250.364 83.5 248.989 85.8182 247.057 87.8182C245.125 89.7955 242.739 91.3409 239.898 92.4545C237.057 93.5455 233.864 94.0909 230.318 94.0909ZM284.011 94.0909C279.648 94.0909 275.795 92.9886 272.455 90.7841C269.114 88.5568 266.5 85.4205 264.614 81.375C262.727 77.3068 261.784 72.5 261.784 66.9545C261.784 61.4545 262.727 56.6818 264.614 52.6364C266.5 48.5909 269.125 45.4659 272.489 43.2614C275.852 41.0568 279.739 39.9545 284.148 39.9545C287.557 39.9545 290.25 40.5227 292.227 41.6591C294.227 42.7727 295.75 44.0455 296.795 45.4773C297.864 46.8864 298.693 48.0455 299.284 48.9545H299.966V23.1818H308.011V93H300.239V84.9545H299.284C298.693 85.9091 297.852 87.1136 296.761 88.5682C295.67 90 294.114 91.2841 292.091 92.4205C290.068 93.5341 287.375 94.0909 284.011 94.0909ZM285.102 86.8636C288.33 86.8636 291.057 86.0227 293.284 84.3409C295.511 82.6364 297.205 80.2841 298.364 77.2841C299.523 74.2614 300.102 70.7727 300.102 66.8182C300.102 62.9091 299.534 59.4886 298.398 56.5568C297.261 53.6023 295.58 51.3068 293.352 49.6705C291.125 48.0114 288.375 47.1818 285.102 47.1818C281.693 47.1818 278.852 48.0568 276.58 49.8068C274.33 51.5341 272.636 53.8864 271.5 56.8636C270.386 59.8182 269.83 63.1364 269.83 66.8182C269.83 70.5455 270.398 73.9318 271.534 76.9773C272.693 80 274.398 82.4091 276.648 84.2045C278.92 85.9773 281.739 86.8636 285.102 86.8636Z" fill="#E21B3F"/>
<path d="M337.636 93L318.545 23.1818H327.136L341.727 80.0455H342.409L357.273 23.1818H366.818L381.682 80.0455H382.364L396.955 23.1818H405.545L386.455 93H377.727L362.318 37.3636H361.773L346.364 93H337.636ZM432.068 94.0909C427.023 94.0909 422.67 92.9773 419.011 90.75C415.375 88.5 412.568 85.3636 410.591 81.3409C408.636 77.2955 407.659 72.5909 407.659 67.2273C407.659 61.8636 408.636 57.1364 410.591 53.0455C412.568 48.9318 415.318 45.7273 418.841 43.4318C422.386 41.1136 426.523 39.9545 431.25 39.9545C433.977 39.9545 436.67 40.4091 439.33 41.3182C441.989 42.2273 444.409 43.7045 446.591 45.75C448.773 47.7727 450.511 50.4545 451.807 53.7955C453.102 57.1364 453.75 61.25 453.75 66.1364V69.5455H413.386V62.5909H445.568C445.568 59.6364 444.977 57 443.795 54.6818C442.636 52.3636 440.977 50.5341 438.818 49.1932C436.682 47.8523 434.159 47.1818 431.25 47.1818C428.045 47.1818 425.273 47.9773 422.932 49.5682C420.614 51.1364 418.83 53.1818 417.58 55.7045C416.33 58.2273 415.705 60.9318 415.705 63.8182V68.4545C415.705 72.4091 416.386 75.7614 417.75 78.5114C419.136 81.2386 421.057 83.3182 423.511 84.75C425.966 86.1591 428.818 86.8636 432.068 86.8636C434.182 86.8636 436.091 86.5682 437.795 85.9773C439.523 85.3636 441.011 84.4545 442.261 83.25C443.511 82.0227 444.477 80.5 445.159 78.6818L452.932 80.8636C452.114 83.5 450.739 85.8182 448.807 87.8182C446.875 89.7955 444.489 91.3409 441.648 92.4545C438.807 93.5455 435.614 94.0909 432.068 94.0909ZM467.08 93V23.1818H475.125V48.9545H475.807C476.398 48.0455 477.216 46.8864 478.261 45.4773C479.33 44.0455 480.852 42.7727 482.83 41.6591C484.83 40.5227 487.534 39.9545 490.943 39.9545C495.352 39.9545 499.239 41.0568 502.602 43.2614C505.966 45.4659 508.591 48.5909 510.477 52.6364C512.364 56.6818 513.307 61.4545 513.307 66.9545C513.307 72.5 512.364 77.3068 510.477 81.375C508.591 85.4205 505.977 88.5568 502.636 90.7841C499.295 92.9886 495.443 94.0909 491.08 94.0909C487.716 94.0909 485.023 93.5341 483 92.4205C480.977 91.2841 479.42 90 478.33 88.5682C477.239 87.1136 476.398 85.9091 475.807 84.9545H474.852V93H467.08ZM474.989 66.8182C474.989 70.7727 475.568 74.2614 476.727 77.2841C477.886 80.2841 479.58 82.6364 481.807 84.3409C484.034 86.0227 486.761 86.8636 489.989 86.8636C493.352 86.8636 496.159 85.9773 498.409 84.2045C500.682 82.4091 502.386 80 503.523 76.9773C504.682 73.9318 505.261 70.5455 505.261 66.8182C505.261 63.1364 504.693 59.8182 503.557 56.8636C502.443 53.8864 500.75 51.5341 498.477 49.8068C496.227 48.0568 493.398 47.1818 489.989 47.1818C486.716 47.1818 483.966 48.0114 481.739 49.6705C479.511 51.3068 477.83 53.6023 476.693 56.5568C475.557 59.4886 474.989 62.9091 474.989 66.8182Z" fill="white"/>
<path d="M191.141 71.8775C195.415 69.7297 198.735 66.6531 201.095 62.6652C203.461 58.6656 204.645 53.9618 204.645 48.5481C204.645 43.1403 203.461 38.4424 201.095 34.4487C198.735 30.449 195.415 27.3783 191.141 25.2305C186.873 23.0768 181.94 22 176.36 22H151.66V93H171.857C167.306 87.5922 164.446 80.5395 164.446 72.7413C164.446 64.5704 167.454 56.8906 172.899 51.1218L175.13 48.7552L168.607 48.7492L174.323 42.7142H179.321C180.116 41.7321 180.969 40.7499 181.893 39.7796C187.992 33.3127 196.362 31.6856 196.362 31.6856C196.362 31.6856 194.826 40.5428 188.716 47.0216C187.809 47.9919 186.879 48.8912 185.955 49.7255V55.0387L180.251 61.0914V54.1689L178.008 56.5356C173.941 60.8607 171.692 66.6176 171.692 72.7413C171.692 81.5868 176.495 89.1838 183.447 93H204.639L191.076 71.9012C191.1 71.9012 191.123 71.8893 191.141 71.8775Z" fill="#E21B3F"/>
</svg>
