<svg width="65" height="65" viewBox="0 0 65 65" fill="none" xmlns="http://www.w3.org/2000/svg">
<g clip-path="url(#clip0_1_43)">
<path d="M34.0516 4.51425L40.0541 13.2661L40.0538 26.3699L33.6556 23.9456L31.4329 5.83835L32.1089 4.81219L34.0516 4.51425Z" fill="#CA2C31"/>
<path d="M37.9494 14.2287L32.053 4.83246L28.1063 10.2853L31.1085 20.1433L33.2763 20.5255L37.9115 23.2493L37.9494 14.2287Z" fill="#A02422"/>
<path d="M21.6628 31.1295L20.6658 26.9148L13.5195 21.8419C13.5195 21.8419 5.77341 23.8293 5.74764 23.9754C5.72187 24.1216 5.25036 25.9449 5.25036 25.9449L11.4088 33.8125L23.6199 37.6837L21.6628 31.1295Z" fill="#A02422"/>
<path d="M16.5732 26.2611C16.5732 26.2611 16.6329 28.5172 17.0932 30.2033C17.5534 31.8895 18.3143 33.9979 18.3143 33.9979L12.3346 32.2201L5.75621 23.9695C5.75621 23.9695 6.13851 23.7581 8.81287 23.0542C10.944 22.4956 11.7064 22.2985 11.7064 22.2985L16.5732 26.2611Z" fill="#CA2C31"/>
<path d="M30.1988 19.1765C30.1988 19.1765 29.1903 17.5369 28.553 16.8971C27.9217 16.2658 27.8563 16.2543 27.6329 16.245C27.4095 16.2358 24.9234 16.3399 22.4345 18.1617C19.3851 20.3969 18.6133 22.7324 18.5527 23.0759C18.4921 23.4194 20.6601 26.1828 20.6601 26.1828L30.1988 19.1765Z" fill="#858585"/>
<path d="M21.4532 24.1073C21.4532 24.1073 19.5415 26.1439 20.156 30.2308C20.9861 35.8176 24.2544 40.3801 28.3922 46.0528C32.3777 51.5253 37.6671 56.4517 37.6671 56.4517L47.2105 55.3313L21.4532 24.1073Z" fill="#B82029"/>
<path d="M24.9665 33.1512L26.8186 34.1334L26.3121 35.6867C26.3121 35.6867 25.5308 36.7998 24.959 37.6183C24.3871 38.4368 23.872 39.529 23.872 39.529L22.3715 36.936C22.3715 36.936 23.0549 35.783 23.5989 34.9521C24.2303 34.0085 24.9665 33.1512 24.9665 33.1512Z" fill="#3F545F"/>
<path d="M52.8365 45.7591C52.8365 45.7591 51.0721 40.9193 46.2542 33.5744C41.9086 26.9532 37.812 21.8981 33.875 20.149C30.5764 18.6933 28.4087 18.7782 25.8062 20.3086C23.0533 21.9256 21.4449 24.1135 21.4449 24.1135C21.4449 24.1135 21.0988 25.9062 25.5283 34.4334C31.0562 45.0683 41.7503 54.6927 41.7503 54.6927L52.8365 45.7591Z" fill="#EA4846"/>
<path d="M39.5547 52.7683C39.5547 52.7683 41.8508 49.2323 46.1215 47.1747C50.3605 45.1265 52.8606 45.7934 52.8606 45.7934C52.8606 45.7934 54.2289 48.3706 55.353 53.8209C56.109 57.4882 55.978 62.2726 54.5798 63.6085C53.1816 64.9443 47.9564 61.3555 47.9564 61.3555L39.7077 55.0483L39.5547 52.7683Z" fill="#D83F22"/>
<path d="M24.922 33.2339C24.922 33.2339 27.1849 30.227 29.9408 28.5503C35.1447 25.3688 40.2357 25.4225 40.2357 25.4225L42.219 27.8293C42.219 27.8293 36.8719 27.3989 31.5814 30.8591C28.131 33.114 26.2663 35.7768 26.2663 35.7768C26.2663 35.7768 25.8807 35.1135 25.5174 34.4089C25.2828 33.9531 24.922 33.2339 24.922 33.2339Z" fill="#6896A5"/>
<path d="M37.6674 56.4518C37.6674 56.4518 39.6969 58.8517 44.7271 61.6752C51.7427 65.6174 54.4084 63.7289 54.4084 63.7289C54.4084 63.7289 50.9877 62.327 46.52 58.7813C42.9415 55.935 39.6333 52.6616 39.6333 52.6616C39.6333 52.6616 38.7406 53.9811 38.3785 54.7159C37.9135 55.6512 37.6674 56.4518 37.6674 56.4518Z" fill="#A02422"/>
<path d="M32.0882 21.1375C31.4237 21.6307 31.8545 22.6334 33.1322 23.4691C34.41 24.3048 35.1824 24.4334 35.5909 24.0307C36.0988 23.5325 35.3716 22.4247 34.6508 21.8757C33.8505 21.2674 32.596 20.7674 32.0882 21.1375Z" fill="#FC7E81"/>
<path d="M50.9749 45.7247C50.9749 45.7247 49.1004 41.8074 46.371 37.5058C43.8653 33.5525 41.8325 30.8732 41.3278 30.4602C40.782 30.0249 39.9249 29.8662 39.4433 30.045C38.9617 30.2239 38.637 30.7468 38.9238 31.3324C39.2178 31.9192 42.6143 36.3084 44.9245 40.1367C47.0364 43.6437 48.2972 46.2773 48.2972 46.2773C48.2972 46.2773 49.8028 47.5224 50.2082 47.4356C50.6268 47.3587 50.9749 45.7247 50.9749 45.7247Z" fill="#FC7E81"/>
<path d="M50.9748 45.7245C50.9748 45.7245 52.4794 48.6347 53.368 51.6773C54.1896 54.5048 54.8041 57.273 53.7977 57.5779C52.8389 57.8684 52.1502 54.7555 50.9764 51.9263C49.8112 49.091 48.3078 46.3016 48.3078 46.3016C48.3078 46.3016 49.0574 46.0495 49.7328 45.9199C50.1394 45.8258 50.5554 45.7636 50.9748 45.7245Z" fill="#ED6A65"/>
<path d="M41.9082 46.3112C44.6917 44.1797 44.6838 40.5238 42.9172 38.4189C41.0942 36.2513 37.8121 35.8082 35.4755 37.5739C33.3544 39.1816 32.3156 42.6907 34.4379 45.2879C36.3177 47.6011 39.635 48.0579 41.9082 46.3112Z" fill="#E1E1E1"/>
<path d="M41.863 39.5892C40.6531 37.8161 37.7073 37.3796 36.0577 38.9499C34.6095 40.3146 34.2819 42.5551 35.4543 44.2011C36.634 45.8483 39.2165 46.3037 40.7856 45.2315C42.5787 43.9955 43.2526 41.6201 41.863 39.5892Z" fill="#3F545F"/>
<path d="M27.9791 25.213C27.9791 25.213 30.332 28.544 29.9724 28.797C29.6127 29.0501 27.8806 28.707 26.1912 27.0151C24.5031 25.3159 21.5953 21.7288 19.6982 18.9604C17.8324 16.2277 15.8067 12.4871 15.9057 12.1806C15.9846 11.9458 16.646 11.0452 17.1871 10.7413C17.7197 10.4433 19.7374 11.9746 20.3824 12.5706C21.0419 13.1691 27.9791 25.213 27.9791 25.213Z" fill="#A02524"/>
<path d="M18.9476 10.0721C18.2994 9.92008 17.1699 10.7532 17.1699 10.7532L29.9722 28.797C29.9722 28.797 30.906 28.2232 29.969 25.8803C29.0273 23.5215 27.77 21.3783 25.6079 18.1563C22.5791 13.6813 19.5959 10.224 18.9476 10.0721Z" fill="#CA2C31"/>
<path opacity="0.5" d="M47.4556 24.42C47.1007 23.9655 46.4545 23.9722 46.1586 24.2892C45.8627 24.6063 45.7904 25.1436 46.0641 25.4631C46.3066 25.747 46.8761 25.8776 47.2957 25.5823C47.6494 25.3207 47.681 24.7159 47.4556 24.42Z" fill="white"/>
</g>
<defs>
<clipPath id="clip0_1_43">
<rect width="56" height="56" fill="white" transform="translate(64.8735 9.72437) rotate(100)"/>
</clipPath>
</defs>
</svg>
