<svg width="246" height="244" viewBox="0 0 246 244" fill="none" xmlns="http://www.w3.org/2000/svg">
<g clip-path="url(#clip0_1_104)">
<path d="M32.7488 103.31L63.9787 88.6607L106.246 95.4372L95.2288 114.622L35.7111 112.359L32.7389 109.669L32.7488 103.31Z" fill="#CA2C31"/>
<path d="M66.0315 95.8821L32.7761 109.859L48.3923 125.286L81.6907 120.793L84.0071 114.066L95.1092 100.667L66.0315 95.8821Z" fill="#A02422"/>
<path d="M112.408 156.645L98.3146 157.651L78.38 177.856C78.38 177.856 80.9192 203.627 81.3778 203.785C81.8364 203.943 87.4819 206.392 87.4819 206.392L115.937 190.788L134.527 153.783L112.408 156.645Z" fill="#A02422"/>
<path d="M94.1603 170.386C94.1603 170.386 101.467 171.362 107.136 170.763C112.805 170.165 119.986 168.825 119.986 168.825L111.263 187.007L81.3626 203.755C81.3626 203.755 80.8718 202.424 79.9377 193.517C79.201 186.421 78.9461 183.883 78.9461 183.883L94.1603 170.386Z" fill="#CA2C31"/>
<path d="M78.1182 123.199C78.1182 123.199 72.3253 125.573 69.943 127.277C67.5914 128.967 67.5214 129.171 67.3799 129.879C67.2385 130.588 66.3321 138.584 70.9643 147.476C76.6505 158.373 83.7981 162.046 84.8757 162.417C85.9534 162.788 95.9505 157.292 95.9505 157.292L78.1182 123.199Z" fill="#858585"/>
<path d="M89.6527 153.683C89.6527 153.683 95.2663 160.843 108.756 160.994C127.192 161.231 143.542 153.15 163.908 142.865C183.552 132.964 202.086 118.615 202.086 118.615L203.241 87.5503L89.6527 153.683Z" fill="#B82029"/>
<path d="M120.58 147.137L124.674 141.729L129.431 144.15C129.431 144.15 132.631 147.221 134.985 149.471C137.339 151.721 140.605 153.931 140.605 153.931L131.491 157.384C131.491 157.384 128.114 154.605 125.706 152.437C122.977 149.932 120.58 147.137 120.58 147.137Z" fill="#3F545F"/>
<path d="M175.175 64.63C175.175 64.63 158.682 67.7635 132.583 79.356C109.054 89.8136 90.7009 100.286 83.0914 111.958C76.7473 121.742 75.938 128.71 79.5739 137.815C83.4137 147.445 89.6674 153.714 89.6674 153.714C89.6674 153.714 95.2768 155.746 124.996 146.006C162.063 133.847 198.451 104.662 198.451 104.662L175.175 64.63Z" fill="#EA4846"/>
<path d="M191.147 110.682C191.147 110.682 180.888 101.519 176.386 86.8129C171.898 72.213 175.298 64.5714 175.298 64.5714C175.298 64.5714 184.295 61.5333 202.437 60.7605C214.644 60.2419 230.011 63.1344 233.622 68.2913C237.232 73.4483 223.044 88.284 223.044 88.284L198.578 111.372L191.147 110.682Z" fill="#D83F22"/>
<path d="M120.824 147.322C120.824 147.322 112.256 138.539 108.225 128.869C100.563 110.6 103.281 94.3657 103.281 94.3657L112.035 89.2747C112.035 89.2747 107.975 106.133 116.492 124.822C122.041 137.01 129.698 144.343 129.698 144.343C129.698 144.343 127.366 145.232 124.912 146.028C123.324 146.542 120.824 147.322 120.824 147.322Z" fill="#6896A5"/>
<path d="M202.085 118.615C202.085 118.615 210.841 113.373 222.462 98.7645C238.684 78.3925 233.925 68.9008 233.925 68.9008C233.925 68.9008 227.693 79.1027 214.024 91.5411C203.054 101.5 190.842 110.375 190.842 110.375C190.842 110.375 194.652 113.909 196.842 115.446C199.626 117.415 202.085 118.615 202.085 118.615Z" fill="#A02422"/>
<path d="M85.3872 118.177C86.6459 120.555 90.0957 119.697 93.4298 116.048C96.7639 112.398 97.5649 109.997 96.4702 108.484C95.117 106.604 91.1802 108.354 89.049 110.373C86.6868 112.615 84.4471 116.363 85.3872 118.177Z" fill="#FC7E81"/>
<path d="M174.134 70.5591C174.134 70.5591 160.562 74.5214 145.322 81.0157C131.319 86.9758 121.66 92.0839 120.076 93.4827C118.399 95.001 117.459 97.6569 117.795 99.2877C118.131 100.918 119.656 102.226 121.688 101.613C123.728 100.977 139.583 92.3969 153.086 86.9967C165.454 82.064 174.579 79.3983 174.579 79.3983C174.579 79.3983 179.347 75.2326 179.27 73.893C179.231 72.516 174.134 70.5591 174.134 70.5591Z" fill="#FC7E81"/>
<path d="M174.134 70.5589C174.134 70.5589 184.273 67.2575 194.532 65.9922C204.063 64.8298 213.299 64.2983 213.779 67.6705C214.237 70.8836 203.852 71.474 194.14 73.7606C184.412 76.0167 174.663 79.3767 174.663 79.3767C174.663 79.3767 174.224 76.852 174.144 74.6275C174.044 73.28 174.051 71.9189 174.134 70.5589Z" fill="#ED6A65"/>
<path d="M171.495 99.8248C166.011 89.8309 154.214 87.9658 146.542 92.5205C138.639 97.223 135.569 107.478 140.097 115.855C144.223 123.462 155.023 128.595 164.461 123.158C172.862 118.35 175.993 107.989 171.495 99.8248Z" fill="#E1E1E1"/>
<path d="M149.791 96.4925C143.467 99.4408 140.586 108.625 144.827 114.706C148.506 120.038 155.569 122.243 161.464 119.349C167.367 116.432 170.126 108.418 167.452 102.852C164.361 96.4846 157.036 93.1038 149.791 96.4925Z" fill="#3F545F"/>
<path d="M96.4792 133.41C96.4792 133.41 108.4 127.616 109.036 128.896C109.673 130.175 107.7 135.531 101.399 140.053C95.0742 144.566 82.0504 152 72.1726 156.629C62.4253 161.176 49.3476 165.713 48.4083 165.238C47.6905 164.864 45.1159 162.286 44.4059 160.4C43.7111 158.545 49.6587 152.892 51.9035 151.139C54.1637 149.342 96.4792 133.41 96.4792 133.41Z" fill="#A02524"/>
<path d="M43.1275 154.43C42.3133 156.422 44.4363 160.461 44.4363 160.461L109.036 128.896C109.036 128.896 107.652 125.616 99.6265 127.398C91.5473 129.186 84.006 132.094 72.5325 137.335C56.5843 144.696 43.9417 152.438 43.1275 154.43Z" fill="#CA2C31"/>
<path opacity="0.5" d="M103.655 70.7841C102.012 71.6828 101.71 73.7505 102.585 74.8598C103.46 75.969 105.157 76.4776 106.324 75.7686C107.361 75.1408 108.067 73.389 107.324 71.896C106.657 70.631 104.722 70.2173 103.655 70.7841Z" fill="white"/>
<path opacity="0.5" d="M131.513 30.5744C129.87 31.4731 129.568 33.5408 130.443 34.6501C131.318 35.7593 133.015 36.2679 134.182 35.5589C135.219 34.9311 135.925 33.1793 135.182 31.6863C134.515 30.4213 132.58 30.0075 131.513 30.5744Z" fill="white"/>
</g>
<defs>
<clipPath id="clip0_1_104">
<rect width="194" height="191" fill="white" transform="translate(62.1836 0.24585) rotate(19)"/>
</clipPath>
</defs>
</svg>
