<svg width="246" height="244" viewBox="0 0 246 244" fill="none" xmlns="http://www.w3.org/2000/svg">
<g clip-path="url(#clip0_223_257)">
<path d="M32.7483 103.31L63.9782 88.6612L106.245 95.4377L95.2283 114.622L35.7106 112.36L32.7384 109.67L32.7483 103.31Z" fill="#CA2C31"/>
<path d="M66.032 95.8826L32.7765 109.859L48.3928 125.286L81.6912 120.793L84.0076 114.066L95.1097 100.668L66.032 95.8826Z" fill="#A02422"/>
<path d="M112.407 156.646L98.3141 157.651L78.3795 177.856C78.3795 177.856 80.9187 203.627 81.3773 203.785C81.8359 203.943 87.4814 206.392 87.4814 206.392L115.937 190.788L134.526 153.783L112.407 156.646Z" fill="#A02422"/>
<path d="M94.1603 170.387C94.1603 170.387 101.467 171.362 107.136 170.764C112.805 170.166 119.986 168.825 119.986 168.825L111.263 187.007L81.3626 203.755C81.3626 203.755 80.8718 202.424 79.9377 193.518C79.201 186.421 78.9461 183.884 78.9461 183.884L94.1603 170.387Z" fill="#CA2C31"/>
<path d="M78.1177 123.199C78.1177 123.199 72.3248 125.573 69.9425 127.278C67.5909 128.968 67.5209 129.171 67.3795 129.88C67.238 130.589 66.3316 138.584 70.9638 147.477C76.65 158.373 83.7976 162.046 84.8752 162.417C85.9529 162.788 95.95 157.292 95.95 157.292L78.1177 123.199Z" fill="#858585"/>
<path d="M89.6522 153.684C89.6522 153.684 95.2658 160.844 108.756 160.994C127.191 161.232 143.541 153.15 163.907 142.866C183.551 132.965 202.085 118.615 202.085 118.615L203.241 87.551L89.6522 153.684Z" fill="#B82029"/>
<path d="M120.58 147.137L124.674 141.729L129.431 144.15C129.431 144.15 132.631 147.221 134.985 149.471C137.339 151.721 140.605 153.931 140.605 153.931L131.491 157.384C131.491 157.384 128.114 154.605 125.706 152.437C122.977 149.932 120.58 147.137 120.58 147.137Z" fill="#3F545F"/>
<path d="M175.176 64.6305C175.176 64.6305 158.683 67.764 132.583 79.3565C109.055 89.8141 90.7014 100.286 83.0919 111.958C76.7478 121.742 75.9385 128.711 79.5744 137.816C83.4142 147.445 89.6679 153.714 89.6679 153.714C89.6679 153.714 95.2773 155.747 124.996 146.007C162.063 133.847 198.452 104.663 198.452 104.663L175.176 64.6305Z" fill="#EA4846"/>
<path d="M191.147 110.682C191.147 110.682 180.889 101.519 176.386 86.8127C171.898 72.2127 175.299 64.5712 175.299 64.5712C175.299 64.5712 184.295 61.5331 202.438 60.7603C214.645 60.2416 230.012 63.1341 233.622 68.2911C237.232 73.4481 223.045 88.2837 223.045 88.2837L198.578 111.372L191.147 110.682Z" fill="#D83F22"/>
<path d="M120.824 147.322C120.824 147.322 112.256 138.539 108.225 128.869C100.563 110.6 103.28 94.3655 103.28 94.3655L112.035 89.2745C112.035 89.2745 107.974 106.133 116.491 124.822C122.041 137.009 129.698 144.343 129.698 144.343C129.698 144.343 127.366 145.231 124.911 146.028C123.324 146.542 120.824 147.322 120.824 147.322Z" fill="#6896A5"/>
<path d="M202.085 118.615C202.085 118.615 210.841 113.373 222.462 98.765C238.684 78.393 233.925 68.9013 233.925 68.9013C233.925 68.9013 227.693 79.1032 214.024 91.5415C203.054 101.501 190.842 110.376 190.842 110.376C190.842 110.376 194.652 113.91 196.842 115.446C199.626 117.415 202.085 118.615 202.085 118.615Z" fill="#A02422"/>
<path d="M85.3872 118.177C86.6459 120.555 90.0957 119.698 93.4298 116.048C96.7639 112.398 97.5649 109.998 96.4702 108.484C95.117 106.604 91.1802 108.355 89.049 110.373C86.6868 112.615 84.4471 116.364 85.3872 118.177Z" fill="#FC7E81"/>
<path d="M174.135 70.5591C174.135 70.5591 160.562 74.5214 145.323 81.0157C131.319 86.9758 121.661 92.0839 120.076 93.4827C118.399 95.001 117.459 97.6569 117.795 99.2877C118.131 100.918 119.656 102.226 121.688 101.613C123.728 100.977 139.583 92.3969 153.086 86.9967C165.454 82.064 174.579 79.3983 174.579 79.3983C174.579 79.3983 179.348 75.2326 179.27 73.893C179.231 72.516 174.135 70.5591 174.135 70.5591Z" fill="#FC7E81"/>
<path d="M174.135 70.5596C174.135 70.5596 184.274 67.2583 194.532 65.993C204.063 64.8305 213.3 64.299 213.78 67.6713C214.238 70.8843 203.853 71.4748 194.14 73.7614C184.412 76.0175 174.664 79.3774 174.664 79.3774C174.664 79.3774 174.225 76.8528 174.144 74.6283C174.044 73.2807 174.051 71.9196 174.135 70.5596Z" fill="#ED6A65"/>
<path d="M171.496 99.825C166.011 89.8312 154.215 87.9661 146.542 92.5207C138.639 97.2233 135.57 107.479 140.098 115.855C144.224 123.462 155.023 128.595 164.461 123.159C172.862 118.35 175.994 107.99 171.496 99.825Z" fill="#E1E1E1"/>
<path d="M149.79 96.4927C143.466 99.441 140.586 108.625 144.827 114.706C148.505 120.038 155.568 122.243 161.464 119.349C167.366 116.433 170.126 108.419 167.452 102.852C164.361 96.4848 157.036 93.104 149.79 96.4927Z" fill="#3F545F"/>
<path d="M96.4797 133.41C96.4797 133.41 108.4 127.616 109.037 128.896C109.673 130.176 107.701 135.531 101.399 140.053C95.0746 144.567 82.0509 152.001 72.1731 156.629C62.4258 161.176 49.3481 165.713 48.4088 165.238C47.691 164.865 45.1164 162.286 44.4064 160.401C43.7116 158.545 49.6592 152.892 51.9039 151.14C54.1642 149.342 96.4797 133.41 96.4797 133.41Z" fill="#A02524"/>
<path d="M43.128 154.431C42.3138 156.423 44.4368 160.462 44.4368 160.462L109.037 128.896C109.037 128.896 107.653 125.617 99.627 127.399C91.5478 129.187 84.0065 132.095 72.533 137.336C56.5848 144.697 43.9422 152.439 43.128 154.431Z" fill="#CA2C31"/>
<path opacity="0.5" d="M103.655 70.7846C102.012 71.6833 101.71 73.751 102.585 74.8603C103.46 75.9695 105.157 76.4781 106.324 75.7691C107.361 75.1413 108.067 73.3895 107.324 71.8965C106.657 70.6315 104.722 70.2177 103.655 70.7846Z" fill="white"/>
<path opacity="0.5" d="M131.513 30.5746C129.87 31.4734 129.569 33.5411 130.443 34.6503C131.318 35.7595 133.015 36.2682 134.183 35.5591C135.22 34.9314 135.925 33.1796 135.183 31.6866C134.515 30.4215 132.58 30.0078 131.513 30.5746Z" fill="white"/>
</g>
<defs>
<clipPath id="clip0_223_257">
<rect width="194" height="191" fill="white" transform="translate(62.1836 0.246094) rotate(19)"/>
</clipPath>
</defs>
</svg>
